<svg width="120" height="32" fill="none" xmlns="http://www.w3.org/2000/svg">
  <path fill-rule="evenodd" clip-rule="evenodd" d="M82.53 16.25c0-4.78-3.43-8.21-8.13-8.21-4.68 0-8.1 3.43-8.1 8.21 0 4.78 3.42 8.21 8.1 8.21 4.7 0 8.13-3.43 8.13-8.21zm-8.13 5.21c-2.86 0-4.7-2.26-4.7-5.21 0-2.98 1.84-5.21 4.7-5.21s4.73 2.24 4.73 5.21c0 2.95-1.86 5.21-4.73 5.21zm44.59-.31v2.98h-9.87V8.24h3.3v12.9H119zm-48.84 2.88c-.78-.4-1.31-.97-1.31-.97l-2.14 3.27 2.71 1.7 2.14-3.42s-.63-.17-1.4-.58zm36.86.1v-2.98h-7.68v-3.6h7.52v-2.97h-7.52v-3.35H107V8.25H96.02v15.88h11zm-17.25-12.9v12.9h-3.33v-12.9h-4.54V8.25h12.38v2.98h-4.51zM63.85 8.25v15.88h-3.33v-6.67h-7.33v6.66h-3.3V8.26h3.3v6.24h7.33V8.25h3.33z" fill="#0071F3"/>
  <path fill-rule="evenodd" clip-rule="evenodd" d="M3.3 17.56v6.57H0V8.24h10.99v2.98H3.3v3.35h7.52v2.98H3.3zm12.27 6.57V8.24h-3.3v15.87h3.3zM31.36 8.24v15.87h-3.2l-7.4-10.35v10.35h-3.3V8.25h3.4l7.2 9.97V8.25h3.3zm16.46 7.95c0 4.78-3.37 7.92-8.23 7.92h-6.13V8.25h6.13c4.86 0 8.23 3.17 8.23 7.95zm-11.05 4.95h2.81c3.08 0 4.87-2.26 4.87-4.95 0-2.8-1.68-4.98-4.87-4.98h-2.81v9.93z" fill="#2A333D"/>
</svg>
